<?xml version="1.0" encoding="UTF-8" standalone="no"?>
<!-- Created with Inkscape (http://www.inkscape.org/) -->

<svg
   xmlns:dc="http://purl.org/dc/elements/1.1/"
   xmlns:cc="http://creativecommons.org/ns#"
   xmlns:rdf="http://www.w3.org/1999/02/22-rdf-syntax-ns#"
   xmlns:svg="http://www.w3.org/2000/svg"
   xmlns="http://www.w3.org/2000/svg"
   xmlns:sodipodi="http://sodipodi.sourceforge.net/DTD/sodipodi-0.dtd"
   xmlns:inkscape="http://www.inkscape.org/namespaces/inkscape"
   width="257"
   height="257"
   id="svg2"
   version="1.1"
   inkscape:version="0.48.2 r9819"
   sodipodi:docname="warn.svg">
  <defs
     id="defs4" />
  <sodipodi:namedview
     id="base"
     pagecolor="#ffffff"
     bordercolor="#666666"
     borderopacity="1.0"
     inkscape:pageopacity="0.0"
     inkscape:pageshadow="2"
     inkscape:zoom="1.4"
     inkscape:cx="212.00326"
     inkscape:cy="100.58322"
     inkscape:document-units="px"
     inkscape:current-layer="layer1"
     showgrid="false"
     inkscape:window-width="1920"
     inkscape:window-height="1012"
     inkscape:window-x="-8"
     inkscape:window-y="-8"
     inkscape:window-maximized="1"
     fit-margin-top="0"
     fit-margin-left="0"
     fit-margin-right="0"
     fit-margin-bottom="0" />
  <metadata
     id="metadata7">
    <rdf:RDF>
      <cc:Work
         rdf:about="">
        <dc:format>image/svg+xml</dc:format>
        <dc:type
           rdf:resource="http://purl.org/dc/dcmitype/StillImage" />
        <dc:title></dc:title>
      </cc:Work>
    </rdf:RDF>
  </metadata>
  <g
     inkscape:label="Layer 1"
     inkscape:groupmode="layer"
     id="layer1"
     transform="translate(0.48258051,0.41940099)">
    <rect
       style="fill:#ffffff;fill-opacity:1;stroke:#000000"
       id="rect2985"
       width="256"
       height="256"
       x="0.017419489"
       y="0.08059901" />
    <path
       sodipodi:type="arc"
       style="fill:#e9ddaf;fill-opacity:1;stroke:#000000;stroke-width:1;stroke-miterlimit:4;stroke-dasharray:none"
       id="path2987"
       sodipodi:cx="127.78429"
       sodipodi:cy="128.32513"
       sodipodi:rx="127.78429"
       sodipodi:ry="127.53176"
       d="m 255.56857,128.32513 c 0,70.43385 -57.21097,127.53177 -127.78428,127.53177 C 57.210974,255.8569 0,198.75898 0,128.32513 0,57.891287 57.210974,0.79337311 127.78429,0.79337311 c 70.57331,0 127.78428,57.09791389 127.78428,127.53175689 z"
       transform="translate(0.23313299,-0.24453527)" />
    <g
       id="g3761"
       transform="matrix(1.1015875,0,0,1.1015875,-5.79334,-0.77599016)">
      <path
         d="m 146.97719,91.202034 c 0,34.868236 -11.41958,63.134536 -25.50635,63.134536 -14.08677,0 -25.506351,-28.2663 -25.506351,-63.134536 0,-34.86824 11.419581,-63.134533 25.506351,-63.134533 14.08677,0 25.50635,28.266293 25.50635,63.134533 z"
         sodipodi:ry="63.134533"
         sodipodi:rx="25.506351"
         sodipodi:cy="91.202034"
         sodipodi:cx="121.47084"
         id="path2989"
         style="fill:#ff0000;fill-opacity:1;stroke:#550000;stroke-width:5;stroke-miterlimit:4;stroke-dasharray:none"
         sodipodi:type="arc" />
      <path
         transform="matrix(0.90959962,0,0,0.99123036,-11.071021,61.908133)"
         d="m 167.18025,125.54722 c 0,10.87889 -9.61054,19.69797 -21.46574,19.69797 -11.8552,0 -21.46574,-8.81908 -21.46574,-19.69797 0,-10.87889 9.61054,-19.69798 21.46574,-19.69798 11.8552,0 21.46574,8.81909 21.46574,19.69798 z"
         sodipodi:ry="19.697975"
         sodipodi:rx="21.465742"
         sodipodi:cy="125.54722"
         sodipodi:cx="145.71451"
         id="path2991"
         style="fill:#ff0000;fill-opacity:1;stroke:#550000;stroke-width:5.26571751;stroke-miterlimit:4;stroke-dasharray:none"
         sodipodi:type="arc" />
    </g>
  </g>
</svg>
